<svg xmlns="http://www.w3.org/2000/svg" xmlns:xlink="http://www.w3.org/1999/xlink" width="800" height="600" viewBox="0 0 800 600">
  <defs>
    <clipPath id="clip-Site">
      <rect width="800" height="600"/>
    </clipPath>
  </defs>
  <g id="Site" clip-path="url(#clip-Site)">
    <g id="kanin_logo" data-name="kanin logo" transform="translate(172.015 -7.855)">
      <path id="Union_1" data-name="Union 1" d="M173.3,590.345a131.846,131.846,0,0,1-35.07,4.711c-69.031,0-124.99-52.87-124.99-118.087,0-44.544,26.1-83.326,64.646-103.439a140.943,140.943,0,0,1-.762-14.648,138.321,138.321,0,0,1,24.639-79.022c-23.9-21.993-49.684-59.745-70.149-105.726-36.5-82.01-42.231-159.118-12.8-172.226s82.875,42.75,119.376,124.76c16.305,36.636,26.471,72.291,30.1,101.7a139.465,139.465,0,0,1,94.359-.385c3.675-29.336,13.822-64.842,30.057-101.317C329.206,44.657,382.652-11.2,412.081,1.908s23.7,90.215-12.8,172.224c-20.269,45.54-45.767,83.019-69.472,105.1a138.337,138.337,0,0,1,25.075,79.649,140.186,140.186,0,0,1-.919,16.056c37.1,20.481,62.025,58.507,62.025,102.031,0,65.217-55.961,118.087-124.992,118.087a131.851,131.851,0,0,1-35.069-4.711,93.219,93.219,0,0,1-82.628,0Z" transform="translate(12.413 7.855)" fill="#1b9ccc"/>
      <path id="nose" d="M35.7,24.682l-.264,31.764ZM0,0H71.4L33.719,25.386Z" transform="translate(191.9 485.522)" fill="rgba(0,0,0,0)" stroke="#707070" stroke-linecap="round" stroke-width="8"/>
    </g>
    <ellipse id="Ellipse_6" data-name="Ellipse 6" cx="25" cy="37.5" rx="25" ry="37.5" transform="matrix(0.996, 0.087, -0.087, 0.996, 324.363, 319.964)" fill="#fff"/>
    <ellipse id="Ellipse_7" data-name="Ellipse 7" cx="25" cy="37.5" rx="25" ry="37.5" transform="matrix(0.995, -0.105, 0.105, 0.995, 429.217, 324.819)" fill="#fff"/>
  </g>
</svg>
