<svg xmlns="http://www.w3.org/2000/svg" xmlns:xlink="http://www.w3.org/1999/xlink" width="800" height="600" viewBox="0 0 800 600">
  <defs>
    <clipPath id="clip-Shirt">
      <rect width="800" height="600"/>
    </clipPath>
  </defs>
  <g id="Shirt" clip-path="url(#clip-Shirt)">
    <g id="Untitled_1_" data-name="Untitled (1)" transform="translate(114.197 -21.241)">
      <rect id="ee-background" width="580" height="643.35" fill="rgba(255,255,255,0)"/>
      <path id="Path_246" data-name="Path 246" d="M558.5,293.5c-13.3-23.6-58.3-101.1-89.1-125h0s-34.5-29.3-75.8-32c-.2-2.9-5.1-4.6-9.2-4.7-11.9-2.1-60.8-9.4-86.3-9.4-28.3,0-66.3,1.3-82.8,6.4v.3a11.752,11.752,0,0,0-5.5,4.3c-14.9,3.9-64.9,18-81,36.1a.31.31,0,0,0,.1.2c-31.2,27-74.6,102.2-86.6,123.6-6.7-2.4-13.6,11.2-7.6,16.5,3.9,3.5,25.1,19.6,46.8,33.2.2.1.3.2.5.3l2.4,1.5a.758.758,0,0,0,.4.2c.8.5,1.5.9,2.3,1.4a.349.349,0,0,1,.2.1c.8.5,1.6.9,2.4,1.4.2.1.3.2.5.3.8.5,1.6.9,2.4,1.4.1,0,.2.1.3.1a25.292,25.292,0,0,1,2.2,1.3c.1.1.2.1.4.2.8.4,1.5.9,2.3,1.3.2.1.3.2.5.2,1.5.8,3.1,1.7,4.6,2.4a.758.758,0,0,0,.4.2c.7.4,1.4.7,2.2,1.1.1.1.2.1.4.2.7.3,1.4.7,2,1a.349.349,0,0,1,.2.1l2.1.9c.1.1.3.1.4.2.7.3,1.4.6,2,.9.1,0,.1.1.2.1a13.358,13.358,0,0,0,1.8.7c.1,0,.2.1.3.1.6.2,1.2.5,1.8.7.1,0,.2.1.4.1l1.8.6c4.2,1.3,7.8-3.8,8.5-8.7a10.653,10.653,0,0,0-.1-4,8.651,8.651,0,0,0-.7-1.7,75.015,75.015,0,0,0,5.6-6.8c1.8-2.5,3.4-5.1,5-7.7,3.7-6.2,6.9-12.6,9.9-18.1.2-.4.5-.8.7-1.2,1.1-2,2.2-4,3.2-5.9,2.1-3.9,4.3-7.9,6.4-11.8,1-2,2.1-4,3.1-5.9,1.4-2.6,2.7-5.3,4-7.9v6.5a8.6,8.6,0,0,1-.1,1.6v1c0,.9-.1,1.7-.1,2.6v.1c-.4,5.4-.5,10.4-.5,15.5,0,8.8.5,17.4,1,27,.1,1.8.2,3.7.3,5.6.1,1.4.2,2.9.2,4.4.1,2,.2,4,.3,6.1,0,1,.1,2.1.1,3.2a745.211,745.211,0,0,1-.8,76.2c-.1,1.9-.2,3.9-.4,5.9-.3,5-.7,10.2-1.1,15.7-.2,2.2-.3,4.4-.5,6.7-.3,3.4-.6,6.9-.9,10.4-.2,2.4-.4,4.8-.7,7.2-.2,2.5-.5,4.9-.7,7.5-.3,2.5-.5,5.1-.8,7.7q-.75,7.8-1.8,16.2c-.6,5.6-1.3,11.4-2,17.3-.5,4.5-1.1,9-1.7,13.7-3.3,26-7.5,55.4-12.8,88.7a12.629,12.629,0,0,0-2.6,1.4,9.762,9.762,0,0,0-1.8,1.7l-.6.9a2.994,2.994,0,0,0-.4,1c-.1.3-.2.7-.3,1a3.4,3.4,0,0,0-.1,1v1.1a4.1,4.1,0,0,0,.1,1.1c.1.5.2,1.1.3,1.6.1.4.2.7.3,1.1,0,.2.1.3.1.5.3.9.6,1.7.9,2.5.3.9,2.9,1.9,7.3,3.1.5.1,1,.3,1.5.4,2,.5,4.4,1,7.1,1.5,3,.6,6.3,1.2,10,1.8.7.1,1.5.2,2.2.3,30.5,4.7,82.8,9.4,141.1,9.4h23.1a16.954,16.954,0,0,0,2.3-.1h1.7a19.273,19.273,0,0,0,2.4-.1,9.7,9.7,0,0,0,1.7-.1c.8,0,1.6-.1,2.4-.1a8.6,8.6,0,0,0,1.6-.1c.8,0,1.6-.1,2.4-.1a9.153,9.153,0,0,0,1.6-.1c.8,0,1.6-.1,2.4-.1a6.6,6.6,0,0,0,1.4-.1c.9,0,1.7-.1,2.6-.1a4.87,4.87,0,0,0,1.2-.1c.9,0,1.8-.1,2.8-.1h1c1.1-.1,2.1-.1,3.2-.2h.5c3.8-.2,7.4-.4,11-.7h0c52.6-3.6,84.7-10.7,89.9-13.1,7-3.2,6.4-14.6-4.5-14.6h-.4c-4.3-28.7-18.8-141-19-332.2,1.8,2.6,3.7,5.2,5.7,7.9,2.5,3.5,5.1,7.1,7.6,10.9,1.7,2.6,3.4,5.3,5.1,7.9,2.8,4.4,5.6,8.7,8.6,12.8,1.2,1.6,2.4,3.2,3.7,4.8a62.54,62.54,0,0,0,6.1,6.5,9.246,9.246,0,0,0-.4,2.9c0,.5.1.9.1,1.4.7,4.9,4.4,9.9,8.5,8.7l1.8-.6c.1,0,.3-.1.4-.1l1.8-.6c.1,0,.2-.1.3-.1a12.2,12.2,0,0,0,1.7-.7c.1,0,.2-.1.3-.1.6-.3,1.3-.5,2-.8.1-.1.3-.1.4-.2.7-.3,1.3-.6,2-.9h.1c.7-.3,1.4-.7,2.1-1,.1-.1.3-.1.4-.2.7-.4,1.5-.7,2.2-1.1h.1a22.565,22.565,0,0,1,2.2-1.1c.1-.1.2-.1.3-.2.8-.4,1.5-.8,2.3-1.2.1,0,.1-.1.2-.1.8-.4,1.6-.9,2.3-1.3h.1c.8-.5,1.6-.9,2.4-1.4a.349.349,0,0,0,.2-.1c1.6-.9,3.3-1.9,5-2.9l.1-.1c23.8-14.3,48.9-33.3,53.2-37.1C573,304.2,565.5,289.9,558.5,293.5Z" transform="translate(-40.197 -82.759)" fill="#b6b7ba"/>
      <path id="Path_247" data-name="Path 247" d="M476.4,331c9.1,14,17.2,28.6,30.5,37.5,7.6,5.1,80.8-54.1,80.8-54.1S522.8,195.5,487.2,177.6c-35.6-17.8-35.6,95.4-35.6,95.4,0,6.6.8,18.7,3.4,25.1C459.4,308.8,468.5,318.8,476.4,331Z" transform="translate(-40.197 -82.759)" fill="#df1212"/>
      <path id="Path_248" data-name="Path 248" d="M517.3,321.3c-4.7-7.2-7.1-15-11.2-22.2-3.9-6.7-10.8-9.5-15.6-15.7-9.4-12.4-14.8-27.2-26.3-38l-11.4.5c-1.2,15.4-1.2,27.2-1.2,27.2,0,6.6.8,18.7,3.4,25.1,4.4,10.6,13.5,20.6,21.4,32.8,9.1,14,17.2,28.6,30.5,37.5,3,2,15.7-5.7,30.2-15.8C529.9,342.6,524,331.8,517.3,321.3Z" transform="translate(-40.197 -82.759)" fill="#d21111"/>
      <path id="Path_249" data-name="Path 249" d="M173,327.7c-.2.4-.5.8-.7,1.2-7,12.6-14.8,30-26.9,38.1-7.6,5.1-80.8-54.1-80.8-54.1S129.5,194,165.1,176.2s35.6,95.4,35.6,95.4c0,2.3-2.6,6.1-3.5,8.1C190.2,296.3,181.6,311.8,173,327.7Z" transform="translate(-40.197 -82.759)" fill="#df1212"/>
      <path id="Path_250" data-name="Path 250" d="M200.7,271.6s0-13.2-1.4-29.8c-8.8,8-17.7,16.1-25.8,24.7-8.4,8.8-9.5,14.4-12.6,25.1-2.8,9.8-10.6,14.2-17.2,21.3-7.4,8.1-15.1,16.2-22.4,24.4a97.918,97.918,0,0,0-9,11.9c15.6,11,29.8,19.8,33,17.7,12.1-8.1,20-25.5,26.9-38.1.2-.4.5-.8.7-1.2,8.6-15.8,17.1-31.4,24.2-48C198.1,277.6,200.7,273.9,200.7,271.6Z" transform="translate(-40.197 -82.759)" fill="#d21111"/>
      <path id="Path_251" data-name="Path 251" d="M326,142.8a465.207,465.207,0,0,0-83.5,7.4c-1.2,0,10.8,55.8,76.3,55.8s87.3-50.5,87.3-50.5S357.1,142.8,326,142.8Z" transform="translate(-40.197 -82.759)" fill="#d21111"/>
      <path id="Path_252" data-name="Path 252" d="M240.8,142.8c16.5-5.1,54.5-6.4,82.8-6.4s85.1,9,88.8,9.9-7.3,14.6-7.3,14.6-29.2-10.8-80.5-10.8-80.5,5.3-80.5,5.3l-3.3-11.5" transform="translate(-40.197 -82.759)" fill="#f26322"/>
      <path id="Path_253" data-name="Path 253" d="M324.5,208.9c-70.6,2.4-79.3-63.6-85-62.6,0,0-66.2,15.8-85.2,37.2,0,0,39,67.2,35.2,124.4-3.9,57.2,17.6,82.5-23.9,343,0,0,57.7,16.3,163.6,13.7,105.9-2.5,154.1-12.7,154.1-12.7S463.1,535,463.1,308.6c0-79.9,31.6-126.1,31.6-126.1S458,151.4,415,150.4C415.1,150.3,384.6,206.9,324.5,208.9Z" transform="translate(-39.197 -82.759)" fill="#df1312"/>
      <path id="Path_254" data-name="Path 254" d="M583.3,307.8c7.1-4.7,15.3,10.2,8.9,15.9s-58,44.4-84,52.2c-6.4,1.9-11.4-10.8-7-15.3C506.9,354.9,558.5,324.4,583.3,307.8Z" transform="translate(-40.197 -82.759)" fill="#f8991d"/>
      <path id="Path_255" data-name="Path 255" d="M69.1,307.8c-7.1-4.7-15.3,10.2-8.9,15.9s58,44.4,84,52.2c6.4,1.9,11.4-10.8,7-15.3C145.4,354.9,93.9,324.4,69.1,307.8Z" transform="translate(-40.197 -82.759)" fill="#f8991d"/>
      <path id="Path_256" data-name="Path 256" d="M329.2,664.5c23.4-.6,43.9-1.5,61.8-2.6-9.1-5.1-18.2-10-27.4-14.3-22.2-10.4-45.2-11.4-57-35.1-13-26.2.6-38.7,26.4-42.5,5.5-.8,27.9-.6,29.4-8.2,1.6-8.2-21.7-14.8-26.8-18.2-32.1-21.1-84.8-58.3-80.3-102,3.6-34.9,18.2-17.6,40.5-8.7,12.3,4.9,50.4,22.1,57.8,1.6-11.6-9.9-29.4-9.5-42.4-19.1-23.8-17.6-54.1-43.2-70.2-68.3-8.9-13.7-24.7-109.2-55.2-82.4,3.1,14.2,4.8,29,3.8,43.2-3.9,57.2,17.6,82.5-23.9,343C165.6,650.8,223.3,667.1,329.2,664.5Z" transform="translate(-40.197 -82.759)" fill="#d21111"/>
      <path id="Path_257" data-name="Path 257" d="M330.5,655.2c-99.9,0-153.9-15.9-162.8-12.7s-7,10.2-5.1,15.3,78.2,16.5,169.2,16.5S480,662.2,487,659.1c7-3.2,6.4-14.6-4.5-14.6S412.5,655.2,330.5,655.2Z" transform="translate(-40.197 -82.759)" fill="#f8991d"/>
      <path id="Path_258" data-name="Path 258" d="M118.8,339.3c-4.8,3.3-9.5,11.6-14.3,16.1,14.3,9.1,29,17.3,39.6,20.5,6.4,1.9,11.4-10.8,7-15.3C148.3,357.9,134.8,349.3,118.8,339.3Z" transform="translate(-40.197 -82.759)" fill="#f57e20"/>
      <path id="Path_259" data-name="Path 259" d="M530.9,340.9c-14.9,9.3-27.1,17.1-29.7,19.7-4.4,4.4.6,17.2,7,15.3,10.3-3.1,24.6-11,38.5-19.8C541,351.9,535.9,346.5,530.9,340.9Z" transform="translate(-40.197 -82.759)" fill="#f57e20"/>
      <path id="Path_260" data-name="Path 260" d="M397.1,672.1c-6.3-6.6-12-14.6-19.7-18.1-14.6.7-30.3,1.2-46.9,1.2-99.9,0-153.9-15.9-162.8-12.7s-7,10.2-5.1,15.3,78.2,16.5,169.2,16.5C356.1,674.3,377.9,673.5,397.1,672.1Z" transform="translate(-40.197 -82.759)" fill="#f57e20"/>
      <path id="Path_261" data-name="Path 261" d="M322.9,201.6c-47.7,0-71.9-50.9-76.3-56.6-4.5-5.7-11.4.6-13.4,6.4s29.9,64.2,92.2,64.2,92.2-59.2,93.5-64.2c1.3-5.1-11.4-7-14-4.5C402.4,149.5,382.6,201.6,322.9,201.6Z" transform="translate(-40.197 -82.759)" fill="#f8991d"/>
      <path id="Path_262" data-name="Path 262" d="M48.571,29.655" fill="rgba(179,228,250,0)" stroke="#000" stroke-width="0"/>
    </g>
  </g>
</svg>
